<svg xmlns="http://www.w3.org/2000/svg" viewBox="0 0 32 32"><title>4-Book</title><g id="_4-Book" data-name="4-Book"><path d="M26,23a5,5,0,0,0-3-1H5a5,5,0,0,0-3,1V5A3,3,0,0,1,5,2h8V0H5A5,5,0,0,0,0,5V27a5,5,0,0,0,5,5H27a1,1,0,0,0,1-1V20H26ZM5,30a3,3,0,0,1,0-6H23a3,3,0,0,1,2.82,2H9v2H26v2Z"/><rect x="5" y="26" width="2" height="2"/><path d="M12,7V5H6A1,1,0,0,0,5,6v4a1,1,0,0,0,1,1h6V9H7V7Z"/><rect x="5" y="14" width="2" height="2"/><rect x="9" y="14" width="2" height="2"/><path d="M23,0a9,9,0,1,0,9,9A9,9,0,0,0,23,0Zm0,16a7,7,0,1,1,7-7A7,7,0,0,1,23,16Z"/><rect x="19" y="8" width="8" height="2"/></g></svg>