<svg width="14" height="15" viewBox="0 0 14 15" fill="none" xmlns="http://www.w3.org/2000/svg">
<path d="M7.26738 11.5189C7.10438 11.4157 6.89657 11.4155 6.73338 11.5184L3.33848 13.6583L3.33758 13.6589C3.22039 13.7331 3.10184 13.7194 3.00395 13.6449C2.90283 13.5679 2.83722 13.4322 2.8743 13.2653L3.7741 9.22539C3.81318 9.04994 3.75507 8.86701 3.6219 8.74627L0.619668 6.0243L0.619495 6.02415C0.507208 5.92244 0.474377 5.77338 0.518808 5.63091C0.562984 5.48926 0.665094 5.40559 0.791588 5.39506L0.791588 5.39507L0.794351 5.39482L4.74552 5.04388C4.93228 5.02729 5.09406 4.90762 5.16457 4.73389L6.71068 0.924847L6.71069 0.924848L6.71145 0.922954C6.82172 0.648078 7.17828 0.648078 7.28855 0.922955L7.28917 0.924485L8.83528 4.74209C8.90571 4.916 9.06758 5.03584 9.25448 5.05244L13.2056 5.40338L13.2056 5.40339L13.2084 5.40362C13.3349 5.41415 13.437 5.49782 13.4812 5.63947C13.5256 5.78194 13.4928 5.931 13.3805 6.0327L13.3803 6.03286L10.3781 8.75483C10.2449 8.87557 10.1868 9.05849 10.2259 9.23395L11.1257 13.2739C11.1628 13.4407 11.0972 13.5765 10.9961 13.6534C10.8982 13.7279 10.7796 13.7417 10.6624 13.6674L10.6623 13.6673L7.26738 11.5189Z" fill="white" stroke="#D4DAE2" stroke-linejoin="round"/>
</svg>
